# xmcd
# Track frame offsets:
# 150
# 14920
# 30892
# 46870
# 60892
# 76417
# 89167
# 101542
# 116917
# 130120
# 144067
# 158395
# 171970
# 186745
# 201820
# 225220
#
# Disc length: 3071 seconds
# Revision: 3
# Processed by: cddbd v1.5.1PL0 Copyright (c) Steve Scherf et al.
# Submitted via: VisiTrax 2.9.10.220 - For more info visit www.synapsa.com
#
DISCID=c70bfd10
DTITLE=More American Folk Blues Festival 1936-65 - Lost Blues Tapes - CD2
DYEAR=2004
DGENRE=Blues
TTITLE0=John Lee Hooker - Della Mae
TTITLE1=Big Mama Thornton - Hound Dog
TTITLE2=Muddy Waters - Captain, Captain
TTITLE3=Sonny Boy Williamson - I Got To Cut Out
TTITLE4=Big Walter 'Shakey' Horton - Blues Harp Shuffle
TTITLE5=Willie Dixon - Strong Brain
TTITLE6=Willie Dixon - Big Leg Women
TTITLE7=Sugar Pie Desanto - You Got Me Running
TTITLE8=Buddy Guy - Souyh Side Jump
TTITLE9=J. B. Lenoir - If I Get Lucky
TTITLE10=Fred McDowell - Got A Letter This Morning
TTITLE11=Roosevelt Sykes - Sail On
TTITLE12=Memphis Slim - Memphis Boogie
TTITLE13=Sleepy John Estes, Hammie Nixon - Your Best Friend's Gone
TTITLE14=Doctor Ross - Farewell Baby
TTITLE15=John Lee Hooker - Della Mae
EXTD=2004
EXTT0=
EXTT1=
EXTT2=
EXTT3=
EXTT4=
EXTT5=
EXTT6=
EXTT7=
EXTT8=
EXTT9=
EXTT10=
EXTT11=
EXTT12=
EXTT13=
EXTT14=
EXTT15=
PLAYORDER=
